<?xml version="1.0" standalone="no"?>
<!DOCTYPE svg PUBLIC "-//W3C//DTD SVG 20010904//EN"
 "http://www.w3.org/TR/2001/REC-SVG-20010904/DTD/svg10.dtd">
<svg version="1.0" xmlns="http://www.w3.org/2000/svg"
 width="200.000000pt" height="200.000000pt" viewBox="0 0 200.000000 200.000000"
 preserveAspectRatio="xMidYMid meet">
<metadata>
Created by potrace 1.14, written by Peter Selinger 2001-2017
</metadata>
<g transform="translate(0.000000,200.000000) scale(0.100000,-0.100000)"
fill="#000000" stroke="none">
<path d="M916 1923 c-4 -5 -12 -9 -17 -9 -5 -1 -13 -2 -18 -3 -5 0 -12 -10
-16 -20 -3 -12 -24 -26 -52 -35 -39 -14 -95 -55 -187 -138 -11 -10 -25 -18
-31 -18 -7 0 -20 -10 -31 -22 -10 -12 -13 -18 -6 -14 18 11 15 1 -16 -48 -40
-62 -56 -110 -88 -266 -21 -105 -37 -154 -72 -224 -27 -52 -41 -91 -35 -95 6
-3 10 -22 11 -41 0 -22 -2 -29 -8 -21 -11 19 -24 -22 -15 -49 5 -14 2 -20 -10
-20 -9 0 -13 -5 -10 -10 4 -6 11 -7 17 -4 10 7 9 -14 -8 -99 -5 -23 -2 -29 14
-34 38 -10 39 -53 2 -53 -16 0 -19 -5 -14 -27 3 -16 0 -50 -6 -78 -38 -184
-38 -183 40 -260 27 -26 46 -54 43 -61 -3 -7 5 -27 16 -43 12 -16 21 -40 21
-54 0 -13 9 -36 20 -50 12 -15 28 -49 36 -77 l15 -50 744 0 745 0 0 315 0 316
-44 42 c-24 23 -51 57 -60 75 -9 18 -41 56 -71 85 -30 29 -55 60 -55 68 0 8
-11 35 -25 62 -14 26 -23 47 -20 47 7 0 -73 151 -117 220 -19 30 -49 89 -66
130 -39 96 -109 239 -150 312 -37 63 -130 148 -216 198 -71 40 -239 74 -260
53z m-558 -1528 c32 -39 11 -45 -26 -7 -24 24 -28 36 -24 63 l5 34 10 -30 c6
-16 21 -43 35 -60z m51 -74 c-3 -6 -10 -7 -18 -2 -7 5 -10 14 -6 21 9 14 29
-2 24 -19z"/>
<path d="M275 500 c3 -5 8 -10 11 -10 2 0 4 5 4 10 0 6 -5 10 -11 10 -5 0 -7
-4 -4 -10z"/>
</g>
</svg>
